<svg xmlns="http://www.w3.org/2000/svg" width="980" height="260" viewBox="0 0 980 260" role="img" aria-labelledby="title desc">
  <title id="title">DeepCodeX logo</title>
  <desc id="desc">Original DeepCodeX wordmark with a blue local-route icon.</desc>
  <rect width="980" height="260" rx="42" fill="#ffffff"/>
  <g transform="translate(56 36) scale(.5222)">
    <rect width="360" height="360" rx="82" fill="#ffffff"/>
    <circle cx="180" cy="180" r="116" fill="#F1F4FF"/>
    <path d="M102 136c34-42 93-50 136-17 38 29 50 84 28 126-19 37-59 58-101 51" fill="none" stroke="#4D6BFE" stroke-width="28" stroke-linecap="round"/>
    <path d="M96 224c38 41 99 50 144 18 38-27 52-80 34-123" fill="none" stroke="#4D6BFE" stroke-width="28" stroke-linecap="round"/>
    <path d="M122 122l116 116M238 122L122 238" fill="none" stroke="#3157F6" stroke-width="30" stroke-linecap="round"/>
    <circle cx="103" cy="136" r="18" fill="#3157F6"/>
    <circle cx="257" cy="224" r="18" fill="#3157F6"/>
  </g>
  <g font-family="Inter, ui-sans-serif, system-ui, -apple-system, BlinkMacSystemFont, 'Segoe UI', sans-serif">
    <text x="300" y="116" fill="#18213a" font-size="64" font-weight="760" letter-spacing="0">DeepCodeX</text>
    <text x="304" y="164" fill="#4D6BFE" font-size="25" font-weight="540" letter-spacing="0">Local Codex route for compatible model services</text>
  </g>
</svg>
